<svg xmlns="http://www.w3.org/2000/svg" xmlns:xlink="http://www.w3.org/1999/xlink" viewBox="0 0 50 50">
  <defs>
    <linearGradient id="linear-gradient" y1="25" x2="50" y2="25" gradientUnits="userSpaceOnUse">
      <stop offset="0" stop-color="#4ca8c5"/>
      <stop offset="1" stop-color="#1fc9fb"/>
    </linearGradient>
  </defs>
  <title>Asset 185</title>
  <g id="Layer_2" data-name="Layer 2">
    <g id="Layer_9" data-name="Layer 9">
      <path d="M50,14.52V0H0V14.52H4.84V29H12.1v3a8.92,8.92,0,0,0,.9,3.87L6.25,42.61a4,4,0,1,0,1.14,1.14l6.46-6.46,0,0,2.55,3.41a2.41,2.41,0,0,0-1.1,2V50h21V42.74A2.41,2.41,0,0,0,35,40.63l.75-1.5,2.35,1.66a3.19,3.19,0,0,0-.22,1.14,3.23,3.23,0,1,0,4.72-2.84l1.24-5.25.49,0a5.64,5.64,0,0,0,.81-11.23V14.52ZM4,48.39A2.42,2.42,0,1,1,6.45,46,2.42,2.42,0,0,1,4,48.39ZM1.61,12.9V1.61H48.39V12.9H45.16V6.45h1.61V4.84H3.23V6.45H4.84V12.9ZM43.55,21H40.4a4,4,0,0,1,3.14-3.14Zm-25,6.45V25.81h25v1.61ZM12.1,21h-.87a5.65,5.65,0,0,0-4.77-4.77v-5a5.65,5.65,0,0,0,4.77-4.77h8.69a8.85,8.85,0,0,0,0,14.52H18.21a4,4,0,0,0-3.69-2.42A2.42,2.42,0,0,0,12.1,21ZM9.6,6.45A4,4,0,0,1,6.45,9.6V6.45ZM6.45,17.82A4,4,0,0,1,9.6,21H6.45Zm0,4.76H12.1v1.61H6.45ZM25,6.45a7.26,7.26,0,1,1-7.26,7.26A7.27,7.27,0,0,1,25,6.45ZM43.55,24.19h-25V22.58h25Zm0-8A5.65,5.65,0,0,0,38.77,21H30.08a8.85,8.85,0,0,0,0-14.52h8.69a5.65,5.65,0,0,0,4.77,4.77Zm0-6.6A4,4,0,0,1,40.4,6.45h3.14ZM6.45,27.42V25.81H12.1v1.61ZM13.71,32V21a.81.81,0,0,1,.81-.81,2.42,2.42,0,0,1,2.42,2.42v6.08l1.34.89a2.41,2.41,0,0,1,1.08,2v1.5H21v-1.5a4,4,0,0,0-.9-2.53H36.29v3.74A7.29,7.29,0,0,1,35.52,36l-2.15,4.3H18.15l-3-4A7.3,7.3,0,0,1,13.71,32Zm21,16.4H16.94V42.74a.81.81,0,0,1,.81-.81H33.87a.81.81,0,0,1,.81.81Zm6.45-4.84a1.61,1.61,0,1,1,1.61-1.61A1.61,1.61,0,0,1,41.13,43.55Zm-.07-4.83a3.19,3.19,0,0,0-2,.76L36.5,37.67l.46-.93a8.92,8.92,0,0,0,.94-4V29h.87a5.66,5.66,0,0,0,3.52,4.44Zm7.33-10.49a4,4,0,0,1-8,.81h4.76V24.27A4,4,0,0,1,48.39,28.23Z" style="fill: url(#linear-gradient)"/>
    </g>
  </g>
</svg>
