<svg xmlns="http://www.w3.org/2000/svg" xmlns:xlink="http://www.w3.org/1999/xlink" viewBox="0 0 50 50">
  <defs>
    <linearGradient id="linear-gradient" y1="28.3" x2="39" y2="28.3" gradientUnits="userSpaceOnUse">
      <stop offset="0" stop-color="#4ca8c5"/>
      <stop offset="1" stop-color="#1fc9fb"/>
    </linearGradient>
    <linearGradient id="linear-gradient-2" x1="48.05" y1="37.93" x2="50" y2="37.93" xlink:href="#linear-gradient"/>
    <linearGradient id="linear-gradient-3" x1="26.77" y1="24.07" x2="47.37" y2="24.07" xlink:href="#linear-gradient"/>
    <linearGradient id="linear-gradient-4" x1="24.47" y1="12.76" x2="26.43" y2="12.76" xlink:href="#linear-gradient"/>
    <linearGradient id="linear-gradient-5" x1="32.03" y1="29.37" x2="35.49" y2="29.37" xlink:href="#linear-gradient"/>
    <linearGradient id="linear-gradient-6" x1="39.72" y1="10.04" x2="50" y2="10.04" xlink:href="#linear-gradient"/>
    <linearGradient id="linear-gradient-7" x1="0" y1="4.76" x2="10.28" y2="4.76" xlink:href="#linear-gradient"/>
  </defs>
  <title>Asset 188</title>
  <g id="Layer_2" data-name="Layer 2">
    <g id="Layer_9" data-name="Layer 9">
      <g>
        <path d="M33.47,43a1,1,0,0,0-.69-.29H29.95a13.07,13.07,0,0,1-4.57-.83l1.69-1.13a3.07,3.07,0,0,0-1.72-5.62h0l3.89-3.89a3,3,0,0,0-1-4.94,3,3,0,0,0-4.14-4.14,3,3,0,0,0-4.94-1l-1.4,1.4a3,3,0,0,0-4.9-.89l-.62.62L9.69,19.8A1.88,1.88,0,0,1,12.2,17l2.44,2.44A1,1,0,1,0,16,18.07l-4.2-4.2a1.88,1.88,0,0,1,2.65-2.65l7.37,7.38a1,1,0,1,0,1.38-1.38l-5.6-5.61A1.88,1.88,0,0,1,20.4,9.09l2.05,2.05a1,1,0,0,0,1.38-1.38L21.78,7.71a3.83,3.83,0,0,0-6.4,1.72A3.83,3.83,0,0,0,10,14.77a3.82,3.82,0,0,0-2,6.14,3.83,3.83,0,0,0-1.68,6.39l.44.44A10.94,10.94,0,0,0,4.29,34.8v1.62l-4,4a1,1,0,1,0,1.38,1.38L6,37.51a1,1,0,0,0,.29-.69v-2A9,9,0,0,1,8.9,28.37l4.85-4.85h0l.46-.46a1.07,1.07,0,0,1,1.6,1.43l-1.29,1.29a1,1,0,0,0,0,1.38h0a1,1,0,0,0,1.38,0l4.6-4.61A1.07,1.07,0,0,1,22.1,24l-4.69,4.7a1,1,0,1,0,1.38,1.38l6-6a1.07,1.07,0,1,1,1.52,1.52l-6,6a1,1,0,0,0,1.38,1.38l4.7-4.69a1.07,1.07,0,0,1,1.43,1.6l-6.59,6.59a1.28,1.28,0,0,0,1.57,2l2-1.21A1.12,1.12,0,0,1,26,39.13l-4.61,3.09a9,9,0,0,1-5.05,1.54H13.18a1,1,0,0,0-.69.29L8.19,48.33a1,1,0,1,0,1.38,1.38l4-4h2.74a11,11,0,0,0,6.14-1.87l1-.66a15,15,0,0,0,6.5,1.49h2.43l5,5a1,1,0,1,0,1.38-1.38ZM10.19,24.32h0l-2,2-.4-.4a1.88,1.88,0,0,1,2.51-2.78l.54.54Z" style="fill: url(#linear-gradient)"/>
        <path d="M49,37a1,1,0,1,0,.69.29A1,1,0,0,0,49,37Z" style="fill: url(#linear-gradient-2)"/>
        <path d="M44.76,32.29V28.34A14.9,14.9,0,0,0,42.23,20l-4.3-6.41a3.89,3.89,0,0,0-5.46-1A3.9,3.9,0,0,0,31,16.92l-2.55-2.55a1,1,0,0,0-1.38,1.38l5.48,5.48a1.4,1.4,0,0,0,2.18-1.71L33,16.75a1.94,1.94,0,0,1,2-2.91,1.92,1.92,0,0,1,1.25.83l4.3,6.41a13,13,0,0,1,2.2,7.26v4.35a1,1,0,0,0,.29.69L45.71,36a1,1,0,1,0,1.38-1.38Z" style="fill: url(#linear-gradient-3)"/>
        <path d="M25.45,13.74a1,1,0,1,0-.69-.29A1,1,0,0,0,25.45,13.74Z" style="fill: url(#linear-gradient-4)"/>
        <path d="M35.2,27.23a1,1,0,0,0-1.38-1.38l-.43.43a4.68,4.68,0,0,0,0,6.61,1,1,0,0,0,1.38-1.38,2.73,2.73,0,0,1,0-3.85Z" style="fill: url(#linear-gradient-5)"/>
        <path d="M46.61,5.27a3.35,3.35,0,0,0-1.75.5,3.35,3.35,0,0,0-1.75-.5,3.42,3.42,0,0,0-3.39,3.45c0,1.08.78,2.37,2.37,4a24.88,24.88,0,0,0,2.18,1.91,1,1,0,0,0,1.19,0,24.9,24.9,0,0,0,2.18-1.91C49.23,11.1,50,9.8,50,8.72A3.42,3.42,0,0,0,46.61,5.27Zm-1.75,7.3c-1.63-1.36-3.19-3.08-3.19-3.85a1.47,1.47,0,0,1,1.44-1.5,1.4,1.4,0,0,1,1,.46,1,1,0,0,0,1.44,0,1.4,1.4,0,0,1,1-.46A1.47,1.47,0,0,1,48,8.72C48,9.49,46.49,11.22,44.86,12.57Z" style="fill: url(#linear-gradient-6)"/>
        <path d="M4.55,9.32a1,1,0,0,0,1.19,0A24.9,24.9,0,0,0,7.91,7.41c1.59-1.59,2.37-2.88,2.37-4A3.42,3.42,0,0,0,6.89,0,3.35,3.35,0,0,0,5.14.5,3.35,3.35,0,0,0,3.39,0,3.42,3.42,0,0,0,0,3.45c0,1.08.78,2.37,2.37,4A24.91,24.91,0,0,0,4.55,9.32ZM3.39,2a1.4,1.4,0,0,1,1,.46,1,1,0,0,0,1.44,0,1.4,1.4,0,0,1,1-.46,1.47,1.47,0,0,1,1.44,1.5c0,.76-1.56,2.49-3.19,3.85C3.51,5.94,2,4.21,2,3.45A1.47,1.47,0,0,1,3.39,2Z" style="fill: url(#linear-gradient-7)"/>
      </g>
    </g>
  </g>
</svg>
