<svg xmlns="http://www.w3.org/2000/svg" xmlns:xlink="http://www.w3.org/1999/xlink" viewBox="0 0 48.27 50">
  <defs>
    <linearGradient id="linear-gradient" y1="25" x2="48.27" y2="25" gradientUnits="userSpaceOnUse">
      <stop offset="0" stop-color="#4ca8c5"/>
      <stop offset="1" stop-color="#1fc9fb"/>
    </linearGradient>
  </defs>
  <title>Asset 187</title>
  <g id="Layer_2" data-name="Layer 2">
    <g id="Layer_9" data-name="Layer 9">
      <path d="M44.25,9.35a.73.73,0,1,0-1.16.9,17.72,17.72,0,0,1,3.7,10.1L37,17.71a41.34,41.34,0,0,0,.48-7.88A41.31,41.31,0,0,0,37,5.27a17.51,17.51,0,0,1,3.83,2.58.73.73,0,0,0,1-1.1A19.09,19.09,0,0,0,35.25,3L36,1A.73.73,0,1,0,34.58.49l-.74,2.06a19.05,19.05,0,0,0-21.18,9.21.75.75,0,0,0-.1.42L12.83,16a1.71,1.71,0,0,0,1.26,1.53l7.23,1.94a1.71,1.71,0,0,0,1.86-.7l.94-1.4.11,1.68a1.71,1.71,0,0,0,1.26,1.53l2.91.78-4.1,15.29-6.85,0h0a.73.73,0,0,0,0,1.46l14.34,0h0a2.7,2.7,0,0,0,1.92-.81l5.16-5.27a4,4,0,0,1,4.13-1l1.57.52L34.8,41.45a2.21,2.21,0,0,1-1.56.65H4.89a3.77,3.77,0,0,1,1-3,3.5,3.5,0,0,1,2.48-1h0l5.62,0h0a.73.73,0,0,0,0-1.46l-5.62,0a4.94,4.94,0,0,0-3.54,1.45,6,6,0,0,0-1.47,4.47,1,1,0,0,0,1,1H6.21L4.7,46.89a2.19,2.19,0,0,0-.07,1.64H.73A.73.73,0,0,0,.73,50H45.8a.73.73,0,0,0,0-1.46H38.93a2.19,2.19,0,0,0-.07-1.64l-2.32-5.11,9.6-9.66a1,1,0,0,0-.4-1.7l-2.24-.75A5.51,5.51,0,0,0,37.85,31l-5.16,5.27a1.23,1.23,0,0,1-.87.37h0l-6,0,4-14.91,2.91.78a1.71,1.71,0,0,0,1.86-.7l.94-1.4.11,1.68a1.71,1.71,0,0,0,1.26,1.53l7.23,1.94a1.71,1.71,0,0,0,1.86-.7l2.13-3.18a.75.75,0,0,0,.12-.41,19.17,19.17,0,0,0-4-12ZM6.7,48.54a.73.73,0,0,1-.67-1l1.79-3.94H9.43L7.37,48.11a.73.73,0,0,1-.67.43Zm14.43,0H8.78l2.26-5H22.46Zm1.52,0,1.33-5h8.53l2.26,5Zm14.87-1a.73.73,0,0,1-.36,1,.72.72,0,0,1-.3.07.74.74,0,0,1-.67-.43l-2.11-4.64a3.7,3.7,0,0,0,1.33-.61ZM22,18a.24.24,0,0,1-.27.1l-7.23-1.94a.24.24,0,0,1-.18-.22l-.19-2.8,9.43,2.53Zm2.28-3.65-9.83-2.63A17.61,17.61,0,0,1,30.84,3.53,32.78,32.78,0,0,0,24.25,14.3ZM33.38,21a.24.24,0,0,1-.27.1l-7.23-1.94A.24.24,0,0,1,25.7,19l-.19-2.8,9.43,2.53Zm2.15-3.69-9.86-2.64a31.32,31.32,0,0,1,6.95-10.9,17.25,17.25,0,0,1,2.8.8A39.84,39.84,0,0,1,36,9.88a39.87,39.87,0,0,1-.44,7.45Zm9.26,6.74a.24.24,0,0,1-.27.1l-7.23-1.94a.24.24,0,0,1-.18-.22l-.19-2.8,9.43,2.53Z" style="fill: url(#linear-gradient)"/>
    </g>
  </g>
</svg>
