<svg xmlns="http://www.w3.org/2000/svg" xmlns:xlink="http://www.w3.org/1999/xlink" viewBox="0 0 50 50">
  <defs>
    <linearGradient id="linear-gradient" y1="25" x2="29.17" y2="25" gradientUnits="userSpaceOnUse">
      <stop offset="0" stop-color="#4ca8c5"/>
      <stop offset="1" stop-color="#1fc9fb"/>
    </linearGradient>
    <linearGradient id="linear-gradient-2" x1="10.42" y1="5.21" x2="18.75" y2="5.21" xlink:href="#linear-gradient"/>
    <linearGradient id="linear-gradient-3" x1="20.86" y1="5.21" x2="22.96" y2="5.21" xlink:href="#linear-gradient"/>
    <linearGradient id="linear-gradient-4" x1="9.55" y1="33.9" x2="50" y2="33.9" xlink:href="#linear-gradient"/>
  </defs>
  <title>Asset 192</title>
  <g id="Layer_2" data-name="Layer 2">
    <g id="Layer_9" data-name="Layer 9">
      <g>
        <path d="M9.38,47.92H7.29a5.22,5.22,0,0,1-5.21-5.21V39.58H18.75a1,1,0,1,0,0-2.08H2.08V10.42h25v7.29a1,1,0,1,0,2.08,0V7.29A7.3,7.3,0,0,0,21.88,0H7.29A7.3,7.3,0,0,0,0,7.29V42.71A7.3,7.3,0,0,0,7.29,50H9.38a1,1,0,1,0,0-2.08ZM7.29,2.08H21.88a5.22,5.22,0,0,1,5.21,5.21v1h-25v-1A5.22,5.22,0,0,1,7.29,2.08Z" style="fill: url(#linear-gradient)"/>
        <path d="M11.46,6.25h6.25a1,1,0,1,0,0-2.08H11.46a1,1,0,1,0,0,2.08Z" style="fill: url(#linear-gradient-2)"/>
        <path d="M21.92,6.25a1,1,0,1,0,0-2.08h0a1,1,0,0,0-1,1A1.05,1.05,0,0,0,21.92,6.25Z" style="fill: url(#linear-gradient-3)"/>
        <path d="M47,27.57,39.19,19a4,4,0,0,0-5.64,0,3.9,3.9,0,0,0-1,1.72,4,4,0,0,0-6.25,2.08,4,4,0,0,0-6.24,2l-3.69-3.69a4,4,0,0,0-5.64,5.64L24.9,41l-8.41,1.32a4.67,4.67,0,0,0-4,4.6A3.13,3.13,0,0,0,15.63,50H35.27a11.38,11.38,0,0,0,8.1-3.36l3.28-3.28A11.44,11.44,0,0,0,47,27.57ZM45.18,41.89,41.9,45.17a9.31,9.31,0,0,1-6.63,2.75H15.63a1,1,0,0,1-1-1,2.58,2.58,0,0,1,2.21-2.54l10.45-1.64a1,1,0,0,0,.58-1.76L12.19,25.3a1.9,1.9,0,0,1,2.7-2.69L25.31,33a1,1,0,0,0,1.47-1.47L22.52,27.3a1.9,1.9,0,0,1,2.69-2.69l4.26,4.26a1,1,0,0,0,1.78-.74,1,1,0,0,0-.3-.73l-2.17-2.17a1.9,1.9,0,0,1,2.69-2.69l2.17,2.17h0a1,1,0,0,0,1.45-1.49L35,23.13a1.91,1.91,0,0,1,2.66-2.73L45.48,29a9.36,9.36,0,0,1-.31,12.92Z" style="fill: url(#linear-gradient-4)"/>
      </g>
    </g>
  </g>
</svg>
