<svg xmlns="http://www.w3.org/2000/svg" xmlns:xlink="http://www.w3.org/1999/xlink" viewBox="0 0 50 50">
  <defs>
    <linearGradient id="linear-gradient" y1="35" x2="50" y2="35" gradientUnits="userSpaceOnUse">
      <stop offset="0" stop-color="#4ca8c5"/>
      <stop offset="1" stop-color="#1fc9fb"/>
    </linearGradient>
    <linearGradient id="linear-gradient-2" x1="21.67" y1="14.17" y2="14.17" xlink:href="#linear-gradient"/>
    <linearGradient id="linear-gradient-3" x1="35" y1="10.42" x2="42.08" y2="10.42" xlink:href="#linear-gradient"/>
  </defs>
  <title>Asset 189</title>
  <g id="Layer_2" data-name="Layer 2">
    <g id="Layer_9" data-name="Layer 9">
      <g id="time-social-distance-schedule-work">
        <path d="M49.17,43.33h-3.1l.57-2.3a.82.82,0,0,0,0-.2V32.5a2.51,2.51,0,0,0-2.5-2.5H30.83a2.51,2.51,0,0,0-2.5,2.5V40h-2.5a2.48,2.48,0,0,0-2.35,3.33H21.67V37.5a4.17,4.17,0,0,0-4.17-4.17H15.83v-2a4.18,4.18,0,0,0,2.5-3.82V24.17A4.17,4.17,0,0,0,14.17,20H12.5a4.17,4.17,0,0,0-4.17,4.17V27.5a4.18,4.18,0,0,0,2.5,3.82v2H9.17A4.17,4.17,0,0,0,5,37.5v5.83H.83a.83.83,0,0,0-.83.83v5A.83.83,0,0,0,.83,50H49.17a.83.83,0,0,0,.83-.83v-5A.83.83,0,0,0,49.17,43.33ZM30,32.5a.83.83,0,0,1,.83-.83H44.17a.83.83,0,0,1,.83.83V40H30Zm-.18,9.17h15l-.42,1.67h-15Zm-4,0H28.1l-.42,1.67H25.83a.83.83,0,1,1,0-1.67Zm-13.33-20h1.67a2.51,2.51,0,0,1,2.5,2.5H15.34l-.58-.59a.84.84,0,0,0-.86-.2l-2.37.79H10A2.51,2.51,0,0,1,12.5,21.67ZM10,27.5V25.83h1.67a1,1,0,0,0,.27,0l2-.68.47.47a.86.86,0,0,0,.59.24h1.67V27.5a2.51,2.51,0,0,1-2.5,2.5H12.5A2.51,2.51,0,0,1,10,27.5Zm4.17,4.17v1.67H12.5V31.67ZM16.34,35l-1.11,3.33h-3.8L10.33,35ZM6.67,37.5a2.49,2.49,0,0,1,1.92-2.42L10,39.43a.84.84,0,0,0,.79.57h5a.84.84,0,0,0,.79-.57l1.45-4.36A2.49,2.49,0,0,1,20,37.5v5.83H6.67ZM48.33,48.33H1.67V45H48.33Z" style="fill: url(#linear-gradient)"/>
        <path d="M35.83,28.33A14.17,14.17,0,1,0,21.67,14.17,14.17,14.17,0,0,0,35.83,28.33Zm-7-24.55,1.23,2.14,1.44-.83L30.33,3A12.39,12.39,0,0,1,35,1.71V4.17h1.67V1.71A12.39,12.39,0,0,1,41.34,3L40.11,5.09l1.44.83,1.23-2.14a12.59,12.59,0,0,1,3.43,3.42L44.08,8.44l.83,1.44L47,8.66a12.39,12.39,0,0,1,1.25,4.67H45.83V15h2.46A12.39,12.39,0,0,1,47,19.67l-2.13-1.23-.83,1.44,2.14,1.23a12.59,12.59,0,0,1-3.43,3.43l-1.23-2.14-1.44.83,1.23,2.13a12.39,12.39,0,0,1-4.68,1.25V24.17H35v2.46a12.39,12.39,0,0,1-4.67-1.25l1.23-2.13-1.44-.83-1.23,2.14a12.59,12.59,0,0,1-3.43-3.43l2.14-1.23-.83-1.44-2.13,1.23A12.39,12.39,0,0,1,23.38,15h2.46V13.33H23.38a12.39,12.39,0,0,1,1.25-4.67l2.13,1.23.83-1.44L25.45,7.21A12.59,12.59,0,0,1,28.88,3.79Z" style="fill: url(#linear-gradient-2)"/>
        <path d="M35.42,14.89a.83.83,0,0,0,.83,0l5.83-3.33-.83-1.44-4.58,2.62V5.83H35v8.33A.83.83,0,0,0,35.42,14.89Z" style="fill: url(#linear-gradient-3)"/>
      </g>
    </g>
  </g>
</svg>
