<svg xmlns="http://www.w3.org/2000/svg" xmlns:xlink="http://www.w3.org/1999/xlink" viewBox="0 0 38.96 50">
  <defs>
    <linearGradient id="linear-gradient" y1="25" x2="38.96" y2="25" gradientUnits="userSpaceOnUse">
      <stop offset="0" stop-color="#4ca8c5"/>
      <stop offset="1" stop-color="#1fc9fb"/>
    </linearGradient>
  </defs>
  <title>Asset 186</title>
  <g id="Layer_2" data-name="Layer 2">
    <g id="Layer_9" data-name="Layer 9">
      <path d="M39,37.21a.85.85,0,0,0-.59-.79c-3-.94-5.22-1.84-6.28-2.3a.85.85,0,0,0-.66,0c-1.07.45-3.3,1.35-6.28,2.3a.84.84,0,0,0-.54.52A13.26,13.26,0,0,0,23,36.36a6.67,6.67,0,0,0-2.9-12.15V13.89a5.3,5.3,0,0,1,4.44,5.22.85.85,0,0,0,1.7,0A5.29,5.29,0,0,1,36.83,19a.85.85,0,0,0,.85.82h0a.85.85,0,0,0,.83-.86A19.27,19.27,0,0,0,0,18.93a.85.85,0,0,0,.83.86h0A.85.85,0,0,0,1.7,19a5.29,5.29,0,0,1,10.55-.45.64.64,0,0,0,0,.08,4.12,4.12,0,0,1,0,.51.85.85,0,0,0,1.7,0,5.3,5.3,0,0,1,4.44-5.22V24.21a6.67,6.67,0,0,0-2.9,12.14A13.36,13.36,0,0,0,5.93,49.15a.85.85,0,0,0,.85.85h25l.16,0L32,50l.08,0h0c3.21-1.24,5.34-3.83,6.32-7.69a19.22,19.22,0,0,0,.55-5ZM35.89,13.62a7,7,0,0,0-9.8,1.12c-.33-3.82-1.32-9.53-4.23-12.85a17.72,17.72,0,0,1,14,11.73ZM7,12.12a7,7,0,0,0-4.35,1.5,17.72,17.72,0,0,1,14-11.73c-2.91,3.32-3.9,9-4.23,12.84A7,7,0,0,0,7,12.12Zm7.21,2.19c.42-4.17,1.62-10.19,5.07-12.47,3.45,2.28,4.66,8.3,5.07,12.47A7,7,0,0,0,14.48,14l-.29.29Zm.09,16.53a5,5,0,1,1,5,5h0a5,5,0,0,1-5-5Zm5,6.68a11.64,11.64,0,0,1,5.31,1.29,18.47,18.47,0,0,0,.52,3.44,11.3,11.3,0,0,0,3.55,6.06h-21A11.66,11.66,0,0,1,19.26,37.51Zm17.5,4.31c-.81,3.18-2.49,5.34-5,6.42-2.52-1.08-4.2-3.23-5-6.42a17.49,17.49,0,0,1-.5-4c2.49-.81,4.41-1.56,5.51-2,1.1.46,3,1.22,5.51,2a17.49,17.49,0,0,1-.5,4Z" style="fill: url(#linear-gradient)"/>
    </g>
  </g>
</svg>
