<svg xmlns="http://www.w3.org/2000/svg" xmlns:xlink="http://www.w3.org/1999/xlink" viewBox="0 0 44.73 50">
  <defs>
    <linearGradient id="linear-gradient" y1="40.14" x2="1.95" y2="40.14" gradientUnits="userSpaceOnUse">
      <stop offset="0" stop-color="#4ca8c5"/>
      <stop offset="1" stop-color="#1fc9fb"/>
    </linearGradient>
    <linearGradient id="linear-gradient-2" y1="25" x2="44.73" y2="25" xlink:href="#linear-gradient"/>
    <linearGradient id="linear-gradient-3" x1="35.81" y1="37.76" x2="40.04" y2="37.76" xlink:href="#linear-gradient"/>
    <linearGradient id="linear-gradient-4" x1="38.09" y1="43.95" x2="40.04" y2="43.95" xlink:href="#linear-gradient"/>
  </defs>
  <title>Asset 191</title>
  <g id="Layer_2" data-name="Layer 2">
    <g id="Layer_9" data-name="Layer 9">
      <g>
        <path d="M1,41.11a1,1,0,1,0-.69-1.67A1,1,0,0,0,1,41.11Z" style="fill: url(#linear-gradient)"/>
        <path d="M40.88,11.33h0l-6.51-4.4A5.89,5.89,0,0,0,30.21,6a4.64,4.64,0,0,0,.1-.94A4.57,4.57,0,0,0,29,1.79l-.44-.44A4.6,4.6,0,0,0,22,7.85l.44.44a4.57,4.57,0,0,0,2,1.16l-6.57,5a2.72,2.72,0,0,0-.9,1.19,2.71,2.71,0,0,0-1.45.1L9.12,18a4.57,4.57,0,0,0,.36-1.79v-.62a4.6,4.6,0,0,0-9.2,0v.62a4.6,4.6,0,0,0,2.46,4.07A4.5,4.5,0,0,0,0,24.39V36a1,1,0,0,0,2,0V34.25H5.8a1,1,0,0,0,.55-.17l4.42-3a2.61,2.61,0,0,1,4.07,2.16v6.05l-2.73,1.09V35.5a1,1,0,0,0-1.48-.84l-4.95,3a2.06,2.06,0,0,0-1,1.76V48H2v-4.1a1,1,0,0,0-2,0V49a1,1,0,0,0,1,1H5.66a1,1,0,0,0,1-1V39.38a.09.09,0,0,1,0-.08l3.47-2.08V49a1,1,0,0,0,1,1H43.75a1,1,0,0,0,1-1V18.43A8.45,8.45,0,0,0,40.88,11.33Zm-17-4.42-.44-.44a2.65,2.65,0,1,1,3.74-3.74l.44.44a2.65,2.65,0,0,1-3.74,3.74ZM19,16l9.69-7.3a3.94,3.94,0,0,1,4.57-.12l5.41,3.66L33.91,16l-3.75-2.53a1,1,0,0,0-.92-.09L19.78,17.3a.78.78,0,0,1-1-.32h0A.77.77,0,0,1,19,16Zm-16.78.21v-.62a2.65,2.65,0,0,1,5.29,0v.62a2.65,2.65,0,1,1-5.29,0Zm5.58,9.44v5.11L5.5,32.29H2V24.39A2.55,2.55,0,0,1,3.64,22l12.5-4.46a.77.77,0,0,1,.7,1.37L8.24,24.81A1,1,0,0,0,7.81,25.62Zm4.42,3.06a4.54,4.54,0,0,0-2.47.73V26.13l8.18-5.62a2.71,2.71,0,0,0,1-1.26,2.75,2.75,0,0,0,.55.06,2.69,2.69,0,0,0,1-.2l9-3.68L33.39,18a3.54,3.54,0,0,1,1.38,2.8v7.67H32.85a1,1,0,0,0-.6.2l-9.71,7.5L16.8,38.52V33.24A4.57,4.57,0,0,0,12.23,28.68ZM42.77,48H12.11V42.49L23.39,38a1,1,0,0,0,.23-.13l9.55-7.38h9.6Zm0-19.53h-2v-7.7a1,1,0,0,0-2,0v7.7H36.72V20.84a5.51,5.51,0,0,0-1.28-3.52l4.93-4a6.5,6.5,0,0,1,2.41,5.07Z" style="fill: url(#linear-gradient-2)"/>
        <path d="M36.78,36.36h1.3v3.78a1,1,0,0,0,2,0V35.38a1,1,0,0,0-1-1H36.78a1,1,0,0,0,0,2Z" style="fill: url(#linear-gradient-3)"/>
        <path d="M39.06,43a1,1,0,1,0,.69.29A1,1,0,0,0,39.06,43Z" style="fill: url(#linear-gradient-4)"/>
      </g>
    </g>
  </g>
</svg>
