<svg xmlns="http://www.w3.org/2000/svg" xmlns:xlink="http://www.w3.org/1999/xlink" viewBox="0 0 58.56 50">
  <defs>
    <linearGradient id="linear-gradient" y1="36.25" x2="28.6" y2="36.25" gradientUnits="userSpaceOnUse">
      <stop offset="0" stop-color="#4ca8c5"/>
      <stop offset="1" stop-color="#1fc9fb"/>
    </linearGradient>
    <linearGradient id="linear-gradient-2" x1="29.96" y1="36.25" x2="58.56" y2="36.25" xlink:href="#linear-gradient"/>
    <linearGradient id="linear-gradient-3" x1="15.09" y1="16.67" x2="38.76" y2="16.67" xlink:href="#linear-gradient"/>
    <linearGradient id="linear-gradient-4" x1="26.61" y1="10.14" x2="43.47" y2="10.14" xlink:href="#linear-gradient"/>
  </defs>
  <title>Asset 190</title>
  <g id="Layer_2" data-name="Layer 2">
    <g id="Layer_9" data-name="Layer 9">
      <g>
        <path d="M27.43,44V42.79s0-.06,0-.09c-.47-4.71-2.53-7.82-5.95-9l-3.26-1.13-5.85-5A2.24,2.24,0,0,0,9,30.53l-.55-.26-2.65-3.2-1.2-3A2.4,2.4,0,0,0,.15,25.74l1.37,3.7a.86.86,0,0,0,.09.17l3.65,5.62.07.09a13.56,13.56,0,0,0,4.61,3.51,16,16,0,0,1,4.93,3.23,3.7,3.7,0,0,1,.94,2.1,1.73,1.73,0,0,0-.87,1.5v2.6A1.73,1.73,0,0,0,16.66,50H26.87a1.73,1.73,0,0,0,1.73-1.73v-2.6A1.74,1.74,0,0,0,27.43,44ZM10.65,37.27a11.83,11.83,0,0,1-4-3L3.09,28.75,1.76,25.14a.69.69,0,0,1,.49-.9.69.69,0,0,1,.79.42l1.25,3.18a.86.86,0,0,0,.14.23l2.86,3.45a.86.86,0,0,0,.3.23l4.39,2L14.3,36.4a.86.86,0,1,0,1.29-1.13L13.15,32.5h0v0l-2.6-2.81a.52.52,0,0,1,.72-.75l6,5.07a.86.86,0,0,0,.27.16l3.41,1.18c2.77,1,4.38,3.48,4.8,7.5v1.1H17.5a5.51,5.51,0,0,0-1.38-3A17.58,17.58,0,0,0,10.65,37.27Zm16.24,11,0,0H16.66l0,0v-2.6l0,0H26.87l0,0Z" style="fill: url(#linear-gradient)"/>
        <path d="M58.27,23.76a2.4,2.4,0,0,0-4.35.26l-1.2,3-2.65,3.2-.55.25a2.24,2.24,0,0,0-3.34-2.9l-5.85,5-3.25,1.13c-3.42,1.18-5.48,4.29-5.95,9,0,0,0,.06,0,.09V44A1.74,1.74,0,0,0,30,45.67v2.6A1.73,1.73,0,0,0,31.69,50H41.9a1.73,1.73,0,0,0,1.73-1.73v-2.6a1.73,1.73,0,0,0-.87-1.5,3.7,3.7,0,0,1,.94-2.1,16,16,0,0,1,4.93-3.23,13.56,13.56,0,0,0,4.61-3.51l.07-.09L57,29.61a.87.87,0,0,0,.09-.17l1.37-3.7A2.4,2.4,0,0,0,58.27,23.76ZM41.92,48.27l0,0H31.69l0,0v-2.6l0,0H41.9l0,0ZM56.8,25.14l-1.33,3.61L51.9,34.25a11.83,11.83,0,0,1-4,3,17.56,17.56,0,0,0-5.47,3.63,5.5,5.5,0,0,0-1.38,3H32.85v-1.1c.41-4,2-6.55,4.8-7.5l3.41-1.18a.85.85,0,0,0,.27-.16l6-5.07a.52.52,0,0,1,.73.74l-2.6,2.81v0h0L43,35.27a.86.86,0,0,0,1.29,1.13l2.32-2.63,4.39-2a.86.86,0,0,0,.3-.23l2.86-3.45a.84.84,0,0,0,.14-.23l1.25-3.18a.69.69,0,0,1,.79-.42.68.68,0,0,1,.49.91Z" style="fill: url(#linear-gradient-2)"/>
        <path d="M38,26.81a1.85,1.85,0,0,0,.7-2l-.62-2.25a.86.86,0,1,0-1.65.46L37,25.26a.15.15,0,0,1-.23.16l-7.06-4.66a.86.86,0,0,0-.94,0l-7.06,4.66a.15.15,0,0,1-.23-.16l2.24-8.15a.86.86,0,0,0-.29-.9l-6.61-5.28a.15.15,0,0,1,.09-.27l8.45-.38a.86.86,0,0,0,.76-.56l.9-2.39a.86.86,0,1,0-1.61-.6l-.7,1.86L16.87,9a1.87,1.87,0,0,0-1.08,3.32L22,17.2l-2.09,7.61a1.86,1.86,0,0,0,2.82,2.05l6.59-4.34,6.59,4.34A1.85,1.85,0,0,0,38,26.81Z" style="fill: url(#linear-gradient-3)"/>
        <path d="M27.17,4.63a.86.86,0,0,0,1.1-.5l.87-2.31a.15.15,0,0,1,.28,0l3,7.92a.86.86,0,0,0,.76.56l8.45.38a.15.15,0,0,1,.09.27l-6.61,5.28a.86.86,0,0,0-.29.9l.7,2.54a.86.86,0,1,0,1.65-.46l-.55-2,6.17-4.92A1.87,1.87,0,0,0,41.69,9L33.8,8.6,31,1.21a1.86,1.86,0,0,0-3.49,0l-.87,2.31A.86.86,0,0,0,27.17,4.63Z" style="fill: url(#linear-gradient-4)"/>
      </g>
    </g>
  </g>
</svg>
